<?xml version="1.0" encoding="utf-8"?>
<!-- Generator: Adobe Illustrator 26.2.1, SVG Export Plug-In . SVG Version: 6.00 Build 0)  -->
<svg version="1.1" id="Layer_1" xmlns="http://www.w3.org/2000/svg" xmlns:xlink="http://www.w3.org/1999/xlink" x="0px" y="0px"
	 viewBox="0 0 299.3 172.5" style="enable-background:new 0 0 299.3 172.5;" xml:space="preserve">
<style type="text/css">
	.st0{fill:#D66939;}
</style>
<g>
	<g>
		<path class="st0" d="M79.3,75.4c-1.1-2-2.7-3.6-4.7-4.6c-2.1-1.1-4.5-1.6-7.2-1.6c-4.8,0-8.7,1.6-11.5,4.7
			c-2.9,3.2-4.3,7.4-4.3,12.6c0,5.6,1.5,10,4.6,13.1s7.2,4.7,12.5,4.7c3.6,0,6.7-0.9,9.2-2.8s4.3-4.5,5.5-8h-19V82.7h32.3v13.8
			c-1.1,3.7-3,7.2-5.6,10.3s-6,5.8-10,7.7c-4.1,2-8.6,2.9-13.7,2.9c-6,0-11.4-1.3-16.1-3.9s-8.4-6.3-11-11s-4-10-4-16.1
			s1.3-11.4,4-16.1c2.6-4.7,6.3-8.4,11-11s10-4,16.1-4c7.3,0,13.4,1.8,18.4,5.3s8.3,8.4,9.9,14.7L79.3,75.4L79.3,75.4z"/>
		<path class="st0" d="M192.3,56.1V117h-14.8V80.5L163.9,117h-12l-13.7-36.6V117h-14.8V56.1h17.5L158,98.3l16.9-42.2
			C174.9,56.1,192.3,56.1,192.3,56.1z"/>
		<path class="st0" d="M236.8,104.9H263v12.2h-43v-11.4l26-37.5h-26V56.1h43v11.3L236.8,104.9z"/>
	</g>
	<g>
		<polygon class="st0" points="299.3,117 292.1,117 292.1,7.2 123.3,7.2 123.3,0 299.3,0 		"/>
	</g>
	<g>
		<polygon class="st0" points="192.3,172.5 0,172.5 0,56.1 7.2,56.1 7.2,165.3 192.3,165.3 		"/>
	</g>
</g>
</svg>
