<?xml version="1.0" encoding="utf-8"?>
<!-- Generator: Adobe Illustrator 26.2.1, SVG Export Plug-In . SVG Version: 6.00 Build 0)  -->
<svg version="1.1" xmlns="http://www.w3.org/2000/svg" xmlns:xlink="http://www.w3.org/1999/xlink" x="0px" y="0px"
	 viewBox="0 0 73.7 73.7" style="enable-background:new 0 0 73.7 73.7;" xml:space="preserve">
<style type="text/css">
	.st0{display:none;}
	.st1{display:inline;}
	.st2{fill:none;stroke:#0000FF;stroke-width:2.8346;stroke-miterlimit:10;}
	.st3{fill:#0000FF;}
	.st4{fill:none;stroke:#0000FF;stroke-width:2.8346;stroke-linecap:round;stroke-miterlimit:10;}
	.st5{display:inline;fill:none;stroke:#0000FF;stroke-width:2.8346;stroke-miterlimit:10;}
</style>
<g id="Layer_1" class="st0">
	
		<image style="overflow:visible;" width="1055" height="309" xlink:href="../../../../../../../../../Users/SzaboGabor/Desktop/Screen Shot 2022-04-17 at 22.26.34.png"  transform="matrix(1.8233 0 0 1.8233 -724.1553 -235.9099)">
	</image>
	
		<image style="overflow:visible;" width="1055" height="309" xlink:href="../../../../../../../../../Users/SzaboGabor/Desktop/Screen Shot 2022-04-17 at 22.26.34.png"  transform="matrix(1.2893 -1.2893 1.2893 1.2893 -449.035 937.9995)">
	</image>
	<g class="st1">
		<rect x="9.2" y="31.2" class="st2" width="41.2" height="34"/>
		<polygon class="st2" points="50.3,54.1 64.5,65.2 64.5,31.2 50.3,42.2 		"/>
		<g>
			<path class="st4" d="M28.6,25.3c1.6-3,4.7-5,8.3-5c3.6,0,6.7,2,8.3,5"/>
			<path class="st4" d="M55.4,19.9C51.9,13.3,44.9,8.7,36.9,8.7c-8,0-15,4.5-18.5,11.2"/>
		</g>
	</g>
</g>
<g id="Layer_2">
	<g>
		<g>
			<g>
				<path d="M7.3,66.3V28.4h45v37.9H7.3z M48.4,62.4V32.2H11.1v30.2H48.4z"/>
				<path d="M51.7,28.9v36.9h-44V28.9H51.7 M10.6,62.9h38.3V31.7H10.6V62.9 M52.7,27.9h-1h-44h-1v1v36.9v1h1h44h1v-1V28.9V27.9
					L52.7,27.9z M11.6,32.7h36.3v29.2H11.6V32.7L11.6,32.7z"/>
			</g>
		</g>
		<g>
			<g>
				<path d="M48.4,54.2V40.4l18-14.1v41.9L48.4,54.2z M62.6,60.4V34.2l-10.4,8.1v10L62.6,60.4z"/>
				<path d="M66,27.4v39.8L48.9,54V40.7L66,27.4 M63.1,61.4V33.2l-11.4,8.9v10.5L63.1,61.4 M66.9,25.4l-1.6,1.2l-17,13.3l-0.4,0.3
					v0.5V54v0.5l0.4,0.3l17,13.3l1.6,1.2v-2V27.4V25.4L66.9,25.4z M52.7,42.5l9.4-7.3v24.2l-9.4-7.3V42.5L52.7,42.5z"/>
			</g>
		</g>
		<g>
			<g>
				<g>
					<path d="M28.6,26.4c-0.3,0-0.6-0.1-0.9-0.2c-0.5-0.2-0.8-0.6-0.9-1.1s-0.1-1,0.1-1.5c2-3.7,5.8-6,10-6c4.2,0,8,2.3,10,6
						c0.2,0.5,0.3,1,0.1,1.5c-0.2,0.5-0.5,0.9-0.9,1.1c-0.3,0.1-0.6,0.2-0.9,0.2c-0.7,0-1.4-0.4-1.7-1c-1.3-2.4-3.8-4-6.6-4
						c-2.8,0-5.3,1.5-6.6,4C30,26,29.3,26.4,28.6,26.4z"/>
					<path d="M36.9,18.1c4,0,7.6,2.2,9.5,5.7c0.4,0.7,0.1,1.5-0.6,1.9c-0.2,0.1-0.4,0.2-0.7,0.2c-0.5,0-1-0.3-1.3-0.8
						c-1.4-2.6-4.1-4.2-7-4.2s-5.6,1.6-7,4.2c-0.3,0.5-0.7,0.8-1.3,0.8c-0.2,0-0.4-0.1-0.7-0.2c-0.7-0.4-1-1.2-0.6-1.9
						C29.2,20.3,32.9,18.1,36.9,18.1 M36.9,17.1c-4.4,0-8.3,2.4-10.4,6.3c-0.3,0.6-0.4,1.2-0.2,1.8c0.2,0.6,0.6,1.1,1.2,1.4
						c0.3,0.2,0.7,0.3,1.1,0.3c0.9,0,1.7-0.5,2.1-1.3c1.2-2.3,3.6-3.7,6.1-3.7c2.6,0,4.9,1.4,6.1,3.7c0.4,0.8,1.2,1.3,2.1,1.3
						c0.4,0,0.8-0.1,1.1-0.3c0.6-0.3,1-0.8,1.2-1.4c0.2-0.6,0.1-1.3-0.2-1.8C45.2,19.5,41.2,17.1,36.9,17.1L36.9,17.1z"/>
				</g>
			</g>
			<g>
				<g>
					<path d="M55.4,21c-0.7,0-1.4-0.4-1.7-1c-3.3-6.3-9.8-10.2-16.8-10.2S23.3,13.7,20,20c-0.3,0.6-1,1-1.7,1
						c-0.3,0-0.6-0.1-0.9-0.2c-0.5-0.2-0.8-0.6-0.9-1.1s-0.1-1,0.1-1.5C20.6,10.6,28.4,6,36.9,6s16.2,4.7,20.2,12.2
						c0.2,0.5,0.3,1,0.1,1.5s-0.5,0.9-0.9,1.1C56,20.9,55.7,21,55.4,21z"/>
					<path d="M36.9,6.5c8.3,0,15.9,4.6,19.8,11.9c0.4,0.7,0.1,1.5-0.6,1.9c-0.2,0.1-0.4,0.2-0.7,0.2c-0.5,0-1-0.3-1.3-0.8
						c-3.4-6.4-10-10.4-17.3-10.4s-13.9,4-17.3,10.4c-0.3,0.5-0.7,0.8-1.3,0.8c-0.2,0-0.4-0.1-0.7-0.2c-0.7-0.4-1-1.2-0.6-1.9
						C21,11,28.6,6.5,36.9,6.5 M36.9,5.5c-8.7,0-16.6,4.8-20.7,12.5c-0.3,0.6-0.4,1.2-0.2,1.8c0.2,0.6,0.6,1.1,1.2,1.4
						c0.3,0.2,0.7,0.3,1.1,0.3c0.9,0,1.7-0.5,2.1-1.3c3.2-6.1,9.5-9.9,16.4-9.9s13.2,3.8,16.4,9.9c0.4,0.8,1.2,1.3,2.1,1.3
						c0.4,0,0.8-0.1,1.1-0.3c0.6-0.3,1-0.8,1.2-1.4c0.2-0.6,0.1-1.3-0.2-1.8C53.5,10.2,45.5,5.5,36.9,5.5L36.9,5.5z"/>
				</g>
			</g>
		</g>
	</g>
</g>
</svg>
