<?xml version="1.0" encoding="utf-8"?>
<!-- Generator: Adobe Illustrator 26.2.1, SVG Export Plug-In . SVG Version: 6.00 Build 0)  -->
<svg version="1.1" xmlns="http://www.w3.org/2000/svg" xmlns:xlink="http://www.w3.org/1999/xlink" x="0px" y="0px"
	 viewBox="0 0 73.7 73.7" style="enable-background:new 0 0 73.7 73.7;" xml:space="preserve">
<style type="text/css">
	.st0{display:none;}
	.st1{display:inline;}
	.st2{fill:none;stroke:#0000FF;stroke-width:2.8346;stroke-miterlimit:10;}
	.st3{fill:#0000FF;}
	.st4{fill:none;stroke:#0000FF;stroke-width:2.8346;stroke-linecap:round;stroke-miterlimit:10;}
	.st5{display:inline;fill:none;stroke:#0000FF;stroke-width:2.8346;stroke-miterlimit:10;}
</style>
<g id="Layer_1" class="st0">
	
		<image style="overflow:visible;" width="1055" height="309" xlink:href="../../../../../../../../../Users/SzaboGabor/Desktop/Screen Shot 2022-04-17 at 22.26.34.png"  transform="matrix(1.8233 0 0 1.8233 -1112.9484 -235.9099)">
	</image>
	
		<image style="overflow:visible;" width="1055" height="309" xlink:href="../../../../../../../../../Users/SzaboGabor/Desktop/Screen Shot 2022-04-17 at 22.26.34.png"  transform="matrix(1.2893 -1.2893 1.2893 1.2893 -837.8279 937.9995)">
	</image>
	<g class="st1">
		<polyline class="st2" points="56.1,57.7 27.7,28.9 9,47.8 		"/>
		<polyline class="st2" points="64.7,47.9 50.7,33.7 41.6,42.9 		"/>
		<rect x="9" y="9.8" class="st2" width="55.7" height="55.7"/>
		<circle class="st2" cx="41.1" cy="22.9" r="4.6"/>
	</g>
</g>
<g id="Layer_2">
	<g>
		<g>
			<g>
				<polygon points="27.7,30.8 10,48.7 7.3,46 27.7,25.3 57.8,55.9 55.1,58.5 				"/>
				<path d="M27.7,26l29.4,29.8l-2,2L27.7,30L10,48l-2-2L27.7,26 M27.7,24.6L27,25.3l-19.7,20L6.6,46l0.7,0.7l2,2l0.7,0.7l0.7-0.7
					l17-17.2l26.7,27.1l0.7,0.7l0.7-0.7l2-2l0.7-0.7l-0.7-0.7L28.4,25.3L27.7,24.6L27.7,24.6z"/>
			</g>
		</g>
		<g>
			<g>
				<polygon points="50.7,35.6 42.6,43.8 39.9,41.1 50.7,30.2 66.4,46.1 63.7,48.8 				"/>
				<path d="M50.7,30.9l15,15.2l-2,2l-13-13.2l-8.1,8.2l-2-2L50.7,30.9 M50.7,29.4L50,30.2L39.9,40.4l-0.7,0.7l0.7,0.7l2,2l0.7,0.7
					l0.7-0.7l7.4-7.5L63,48.8l0.7,0.7l0.7-0.7l2-2l0.7-0.7l-0.7-0.7l-15-15.2L50.7,29.4L50.7,29.4z"/>
			</g>
		</g>
		<g>
			<g>
				<path d="M7.1,66.6V7.1h59.5v59.5H7.1z M62.8,62.8V10.9H10.9v51.9H62.8z"/>
				<path d="M66.1,7.6v58.5H7.6V7.6H66.1 M10.4,63.3h52.9V10.4H10.4V63.3 M67.1,6.6h-1H7.6h-1v1v58.5v1h1h58.5h1v-1V7.6V6.6
					L67.1,6.6z M11.4,11.4h50.9v50.9H11.4V11.4L11.4,11.4z"/>
			</g>
		</g>
		<g>
			<g>
				<path d="M41.1,28.5c-3.6,0-6.5-2.9-6.5-6.5s2.9-6.5,6.5-6.5c3.6,0,6.5,2.9,6.5,6.5S44.7,28.5,41.1,28.5z M41.1,19.4
					c-1.5,0-2.6,1.2-2.6,2.6s1.2,2.6,2.6,2.6s2.6-1.2,2.6-2.6S42.5,19.4,41.1,19.4z"/>
				<path d="M41.1,16c3.3,0,6,2.7,6,6s-2.7,6-6,6c-3.3,0-6-2.7-6-6S37.8,16,41.1,16 M41.1,25.2c1.7,0,3.1-1.4,3.1-3.1
					s-1.4-3.1-3.1-3.1s-3.1,1.4-3.1,3.1S39.4,25.2,41.1,25.2 M41.1,15.1c-3.8,0-7,3.1-7,7s3.1,7,7,7c3.8,0,7-3.1,7-7
					S44.9,15.1,41.1,15.1L41.1,15.1z M41.1,24.2c-1.2,0-2.2-1-2.2-2.2c0-1.2,1-2.2,2.2-2.2c1.2,0,2.2,1,2.2,2.2
					C43.2,23.2,42.3,24.2,41.1,24.2L41.1,24.2z"/>
			</g>
		</g>
	</g>
</g>
</svg>
