<?xml version="1.0" encoding="utf-8"?>
<!-- Generator: Adobe Illustrator 26.2.1, SVG Export Plug-In . SVG Version: 6.00 Build 0)  -->
<svg version="1.1" xmlns="http://www.w3.org/2000/svg" xmlns:xlink="http://www.w3.org/1999/xlink" x="0px" y="0px"
	 viewBox="0 0 73.7 73.7" style="enable-background:new 0 0 73.7 73.7;" xml:space="preserve">
<style type="text/css">
	.st0{display:none;}
	.st1{display:inline;}
	.st2{fill:none;stroke:#0000FF;stroke-width:2.8346;stroke-miterlimit:10;}
	.st3{fill:#0000FF;}
	.st4{fill:none;stroke:#0000FF;stroke-width:2.8346;stroke-linecap:round;stroke-miterlimit:10;}
	.st5{display:inline;fill:none;stroke:#0000FF;stroke-width:2.8346;stroke-miterlimit:10;}
</style>
<g id="Layer_1" class="st0">
	
		<image style="overflow:visible;" width="1055" height="309" xlink:href="../../../../../../../../../Users/SzaboGabor/Desktop/Screen Shot 2022-04-17 at 22.26.34.png"  transform="matrix(1.8233 0 0 1.8233 -1112.9484 -235.9099)">
	</image>
	
		<image style="overflow:visible;" width="1055" height="309" xlink:href="../../../../../../../../../Users/SzaboGabor/Desktop/Screen Shot 2022-04-17 at 22.26.34.png"  transform="matrix(1.2893 -1.2893 1.2893 1.2893 -837.8279 937.9995)">
	</image>
	<g class="st1">
		<polyline class="st2" points="56.1,57.7 27.7,28.9 9,47.8 		"/>
		<polyline class="st2" points="64.7,47.9 50.7,33.7 41.6,42.9 		"/>
		<rect x="9" y="9.8" class="st2" width="55.7" height="55.7"/>
		<circle class="st2" cx="41.1" cy="22.9" r="4.6"/>
	</g>
</g>
<g id="Layer_2">
	<g>
		<g>
			<g>
				<polygon points="27.7,34.3 10,52.2 7.3,49.6 27.7,28.9 57.8,59.4 55.1,62.1 				"/>
				<path d="M27.7,29.6l29.4,29.8l-2,2L27.7,33.6L10,51.5l-2-2L27.7,29.6 M27.7,28.2L27,28.9l-19.7,20l-0.7,0.7l0.7,0.7l2,2l0.7,0.7
					l0.7-0.7l17-17.2l26.7,27.1l0.7,0.7l0.7-0.7l2-2l0.7-0.7l-0.7-0.7L28.4,28.9L27.7,28.2L27.7,28.2z"/>
			</g>
		</g>
		<g>
			<g>
				<polygon points="50.7,39.2 42.6,47.4 39.9,44.7 50.7,33.7 66.4,49.7 63.7,52.4 				"/>
				<path d="M50.7,34.4l15,15.2l-2,2l-13-13.2l-8.1,8.2l-2-2L50.7,34.4 M50.7,33L50,33.7L39.9,44l-0.7,0.7l0.7,0.7l2,2l0.7,0.7
					l0.7-0.7l7.4-7.5L63,52.4l0.7,0.7l0.7-0.7l2-2l0.7-0.7L66.4,49l-15-15.2L50.7,33L50.7,33z"/>
			</g>
		</g>
		<g>
			<g>
				<path d="M7.1,70.2V10.7h59.5v59.5H7.1z M62.8,66.4V14.5H10.9v51.9H62.8z"/>
				<path d="M66.1,11.2v58.5H7.6V11.2H66.1 M10.4,66.9h52.9V14H10.4V66.9 M67.1,10.2h-1H7.6h-1v1v58.5v1h1h58.5h1v-1V11.2V10.2
					L67.1,10.2z M11.4,15h50.9v50.9H11.4V15L11.4,15z"/>
			</g>
		</g>
		<g>
			<g>
				<path d="M41.1,32.1c-3.6,0-6.5-2.9-6.5-6.5s2.9-6.5,6.5-6.5c3.6,0,6.5,2.9,6.5,6.5S44.7,32.1,41.1,32.1z M41.1,23
					c-1.5,0-2.6,1.2-2.6,2.6s1.2,2.6,2.6,2.6s2.6-1.2,2.6-2.6S42.5,23,41.1,23z"/>
				<path d="M41.1,19.6c3.3,0,6,2.7,6,6s-2.7,6-6,6c-3.3,0-6-2.7-6-6S37.8,19.6,41.1,19.6 M41.1,28.7c1.7,0,3.1-1.4,3.1-3.1
					s-1.4-3.1-3.1-3.1s-3.1,1.4-3.1,3.1S39.4,28.7,41.1,28.7 M41.1,18.6c-3.8,0-7,3.1-7,7s3.1,7,7,7c3.8,0,7-3.1,7-7
					S44.9,18.6,41.1,18.6L41.1,18.6z M41.1,27.8c-1.2,0-2.2-1-2.2-2.2s1-2.2,2.2-2.2c1.2,0,2.2,1,2.2,2.2S42.3,27.8,41.1,27.8
					L41.1,27.8z"/>
			</g>
		</g>
	</g>
</g>
</svg>
