<?xml version="1.0" encoding="utf-8"?>
<!-- Generator: Adobe Illustrator 26.2.1, SVG Export Plug-In . SVG Version: 6.00 Build 0)  -->
<svg version="1.1" xmlns="http://www.w3.org/2000/svg" xmlns:xlink="http://www.w3.org/1999/xlink" x="0px" y="0px"
	 viewBox="0 0 73.7 73.7" style="enable-background:new 0 0 73.7 73.7;" xml:space="preserve">
<style type="text/css">
	.st0{display:none;}
	.st1{display:inline;}
	.st2{fill:none;stroke:#0000FF;stroke-width:2.8346;stroke-miterlimit:10;}
	.st3{fill:#0000FF;}
	.st4{fill:none;stroke:#0000FF;stroke-width:2.8346;stroke-linecap:round;stroke-miterlimit:10;}
	.st5{display:inline;fill:none;stroke:#0000FF;stroke-width:2.8346;stroke-miterlimit:10;}
</style>
<g id="Layer_1" class="st0">
	
		<image style="overflow:visible;" width="1055" height="309" xlink:href="../../../../../../../../../Users/SzaboGabor/Desktop/Screen Shot 2022-04-17 at 22.26.34.png"  transform="matrix(1.8233 0 0 1.8233 -1502.5219 -235.9099)">
	</image>
	
		<image style="overflow:visible;" width="1055" height="309" xlink:href="../../../../../../../../../Users/SzaboGabor/Desktop/Screen Shot 2022-04-17 at 22.26.34.png"  transform="matrix(1.2893 -1.2893 1.2893 1.2893 -1227.4015 937.9995)">
	</image>
	<g class="st1">
		<circle class="st2" cx="52.1" cy="18.9" r="16.5"/>
		<polyline class="st2" points="35.9,22.3 6.6,55.8 15.2,64.4 48.7,35.1 		"/>
		<path class="st3" d="M31.6,39.4L31.6,39.4c-0.5-0.5-0.5-1.4,0-1.9l2.6-2.6c0.5-0.5,1.4-0.5,1.9,0v0c0.5,0.5,0.5,1.4,0,1.9
			l-2.6,2.6C33,40,32.1,40,31.6,39.4z"/>
		<line class="st2" x1="10.9" y1="60.1" x2="4.8" y2="66.2"/>
		<line class="st2" x1="40.5" y1="7.4" x2="63.7" y2="30.6"/>
		<line class="st2" x1="12.1" y1="49.6" x2="21.4" y2="58.9"/>
	</g>
	<rect x="4.8" y="-0.7" class="st5" width="67" height="67"/>
</g>
<g id="Layer_2">
	<g>
		<g>
			<g>
				<path d="M52.1,39.8c-4.9,0-9.5-1.9-13-5.4c-3.5-3.5-5.4-8.1-5.4-13c0-4.9,1.9-9.5,5.4-13c3.5-3.5,8.1-5.4,13-5.4
					c4.9,0,9.5,1.9,13,5.4c7.2,7.2,7.2,18.8,0,26C61.6,37.9,57,39.8,52.1,39.8z M52.1,6.9c-3.9,0-7.5,1.5-10.3,4.3
					c-2.7,2.7-4.3,6.4-4.3,10.3c0,3.9,1.5,7.5,4.3,10.3c2.7,2.7,6.4,4.3,10.3,4.3s7.5-1.5,10.3-4.3c2.7-2.7,4.3-6.4,4.3-10.3
					c0-3.9-1.5-7.5-4.3-10.3C59.6,8.4,56,6.9,52.1,6.9z"/>
				<path d="M52.1,3.5c4.8,0,9.3,1.9,12.6,5.2c7,7,7,18.3,0,25.3c0,0,0,0,0,0c-3.4,3.4-7.9,5.2-12.6,5.2s-9.3-1.9-12.6-5.2
					c-7-7-7-18.3,0-25.3C42.8,5.4,47.3,3.5,52.1,3.5 M52.1,36.4c4,0,7.8-1.6,10.6-4.4v0c5.9-5.9,5.9-15.4,0-21.3
					c-2.8-2.8-6.6-4.4-10.6-4.4s-7.8,1.6-10.6,4.4c-5.9,5.9-5.9,15.4,0,21.3C44.3,34.9,48.1,36.4,52.1,36.4 M52.1,2.5
					c-5,0-9.8,2-13.3,5.5c-3.6,3.6-5.5,8.3-5.5,13.3c0,5,2,9.8,5.5,13.3c3.6,3.6,8.3,5.5,13.3,5.5c5,0,9.8-2,13.3-5.5
					c7.4-7.4,7.4-19.3,0-26.7C61.8,4.5,57.1,2.5,52.1,2.5L52.1,2.5z M52.1,35.4c-3.8,0-7.3-1.5-9.9-4.1c-2.6-2.6-4.1-6.2-4.1-9.9
					s1.5-7.3,4.1-9.9c2.7-2.7,6.2-4.1,9.9-4.1c3.8,0,7.3,1.5,9.9,4.1c2.6,2.6,4.1,6.2,4.1,9.9c0,3.8-1.5,7.3-4.1,9.9
					C59.4,34,55.8,35.4,52.1,35.4L52.1,35.4z"/>
			</g>
		</g>
		<g>
			<g>
				<polygon points="4,58.3 34.8,23.1 37.7,25.6 9.2,58.2 15.3,64.2 47.9,35.8 50.4,38.7 15.1,69.5 				"/>
				<path d="M34.8,23.8l2.1,1.9L8.6,58.2l6.7,6.7l32.5-28.4l1.9,2.1L15.1,68.8L4.7,58.3L34.8,23.8 M34.7,22.4l-0.7,0.7L3.9,57.7
					l-0.6,0.7L4,59l10.5,10.5l0.7,0.7l0.7-0.6l34.5-30.2l0.7-0.7L50.4,38l-1.9-2.1l-0.7-0.7l-0.7,0.7L15.3,63.6l-5.4-5.4l27.8-31.8
					l0.7-0.7l-0.7-0.7L35.5,23L34.7,22.4L34.7,22.4z"/>
			</g>
		</g>
		<g>
			<g>
				<path d="M32.5,42.8c-0.5,0-1-0.2-1.3-0.5c-0.4-0.3-0.5-0.8-0.5-1.3c0-0.5,0.2-1,0.5-1.3l2.6-2.6c0.3-0.4,0.8-0.5,1.3-0.5
					c0.5,0,1,0.2,1.3,0.5c0.3,0.3,0.5,0.8,0.5,1.3c0,0.5-0.2,1-0.5,1.3l-2.6,2.6C33.5,42.6,33,42.8,32.5,42.8z"/>
				<path d="M35.1,37c0.3,0,0.7,0.1,1,0.4c0.5,0.5,0.5,1.4,0,1.9l-2.6,2.6c-0.3,0.3-0.6,0.4-1,0.4s-0.7-0.1-1-0.4
					c-0.5-0.5-0.5-1.4,0-1.9l2.6-2.6C34.4,37.1,34.8,37,35.1,37 M35.1,36c-0.6,0-1.2,0.2-1.7,0.7l-2.6,2.6c-0.4,0.4-0.7,1-0.7,1.7
					c0,0.6,0.2,1.2,0.7,1.7c0.4,0.4,1,0.7,1.7,0.7c0.6,0,1.2-0.2,1.7-0.7l2.6-2.6c0.9-0.9,0.9-2.4,0-3.3C36.4,36.2,35.8,36,35.1,36
					L35.1,36z"/>
			</g>
		</g>
		<g>
			<g>
				<rect x="3" y="63.7" transform="matrix(0.7071 -0.7071 0.7071 0.7071 -44.1087 24.7664)" width="9.7" height="3.8"/>
				<path d="M9.9,61.6l2,2l-6.1,6.1l-2-2L9.9,61.6 M9.9,60.2l-0.7,0.7L3.1,67l-0.7,0.7l0.7,0.7l2,2l0.7,0.7l0.7-0.7l6.1-6.1l0.7-0.7
					l-0.7-0.7l-2-2L9.9,60.2L9.9,60.2z"/>
			</g>
		</g>
		<g>
			<g>
				<rect x="50.2" y="4.6" transform="matrix(0.7069 -0.7073 0.7073 0.7069 0.1102 43.1446)" width="3.8" height="33.8"/>
				<path d="M41.5,8.8L64.7,32l-2,2L39.5,10.9L41.5,8.8 M41.5,7.4l-0.7,0.7l-2,2l-0.7,0.7l0.7,0.7L62,34.7l0.7,0.7l0.7-0.7l2-2
					l0.7-0.7l-0.7-0.7L42.2,8.1L41.5,7.4L41.5,7.4z"/>
			</g>
		</g>
		<g>
			<g>
				<rect x="14.9" y="49.6" transform="matrix(0.7071 -0.7071 0.7071 0.7071 -35.1835 28.4679)" width="3.8" height="14.2"/>
				<path d="M13.1,51l9.3,9.3l-2,2L11.1,53L13.1,51 M13.1,49.6l-0.7,0.7l-2,2L9.7,53l0.7,0.7l9.3,9.3l0.7,0.7l0.7-0.7l2-2l0.7-0.7
					l-0.7-0.7l-9.3-9.3L13.1,49.6L13.1,49.6z"/>
			</g>
		</g>
	</g>
</g>
</svg>
