<?xml version="1.0" encoding="utf-8"?>
<!-- Generator: Adobe Illustrator 26.2.1, SVG Export Plug-In . SVG Version: 6.00 Build 0)  -->
<svg version="1.1" xmlns="http://www.w3.org/2000/svg" xmlns:xlink="http://www.w3.org/1999/xlink" x="0px" y="0px"
	 viewBox="0 0 73.7 73.7" style="enable-background:new 0 0 73.7 73.7;" xml:space="preserve">
<style type="text/css">
	.st0{display:none;}
	.st1{display:inline;}
	.st2{fill:none;stroke:#0000FF;stroke-width:2.8346;stroke-miterlimit:10;}
	.st3{fill:#0000FF;}
	.st4{fill:none;stroke:#0000FF;stroke-width:2.8346;stroke-linecap:round;stroke-miterlimit:10;}
	.st5{display:inline;fill:none;stroke:#0000FF;stroke-width:2.8346;stroke-miterlimit:10;}
</style>
<g id="Layer_1" class="st0">
	
		<image style="overflow:visible;" width="1055" height="309" xlink:href="../../../../../../../../../Users/SzaboGabor/Desktop/Screen Shot 2022-04-17 at 22.26.34.png"  transform="matrix(1.8233 0 0 1.8233 -335.855 -235.9099)">
	</image>
	
		<image style="overflow:visible;" width="1055" height="309" xlink:href="../../../../../../../../../Users/SzaboGabor/Desktop/Screen Shot 2022-04-17 at 22.26.34.png"  transform="matrix(1.2893 -1.2893 1.2893 1.2893 -60.7347 937.9995)">
	</image>
	<g class="st1">
		<polygon class="st2" points="45.5,9.8 50.5,18.9 70.3,18.9 70.3,65.9 3.4,65.9 3.4,18.9 23.6,18.9 28.5,9.8 		"/>
		<circle class="st2" cx="36.9" cy="42.9" r="7.6"/>
		<circle class="st2" cx="36.9" cy="42.9" r="15.3"/>
		<circle class="st3" cx="61.6" cy="26.7" r="1.8"/>
	</g>
</g>
<g id="Layer_2">
	<g>
		<g>
			<g>
				<path d="M1.5,66.8V16h21l5-9.1h19.2l5,9.1h20.6v50.7H1.5z M68.4,63V19.9H49.3l-5-9.1H29.7l-5,9.1H5.3V63H68.4z"/>
				<path d="M46.3,7.4l5,9.1h20.4v49.7H2V16.5h20.8l5-9.1H46.3 M4.8,63.5h64.1V19.4H49.6l-5-9.1H29.4l-5,9.1H4.8V63.5 M46.9,6.4
					h-0.6H27.7h-0.6l-0.3,0.5l-4.7,8.6H2H1v1v49.7v1h1h69.8h1v-1V16.5v-1h-1H51.9l-4.7-8.6L46.9,6.4L46.9,6.4z M30,11.2h14.1
					l4.7,8.6l0.3,0.5h0.6h18.3v42.1H5.8V20.4h18.6H25l0.3-0.5L30,11.2L30,11.2z"/>
			</g>
		</g>
		<g>
			<g>
				<path d="M36.9,51.5c-5.3,0-9.5-4.3-9.5-9.5s4.3-9.5,9.5-9.5s9.5,4.3,9.5,9.5S42.1,51.5,36.9,51.5z M36.9,36.2
					c-3.2,0-5.7,2.6-5.7,5.7c0,3.2,2.6,5.7,5.7,5.7s5.7-2.6,5.7-5.7C42.6,38.8,40,36.2,36.9,36.2z"/>
				<path d="M36.9,32.9c5,0,9,4.1,9,9s-4.1,9-9,9s-9-4.1-9-9S31.9,32.9,36.9,32.9 M36.9,48.1c3.4,0,6.2-2.8,6.2-6.2
					s-2.8-6.2-6.2-6.2s-6.2,2.8-6.2,6.2S33.4,48.1,36.9,48.1 M36.9,31.9c-5.5,0-10,4.5-10,10s4.5,10,10,10s10-4.5,10-10
					S42.4,31.9,36.9,31.9L36.9,31.9z M36.9,47.1c-2.9,0-5.2-2.3-5.2-5.2c0-2.9,2.3-5.2,5.2-5.2s5.2,2.3,5.2,5.2
					C42.1,44.8,39.7,47.1,36.9,47.1L36.9,47.1z"/>
			</g>
		</g>
		<g>
			<g>
				<path d="M36.9,59.2c-9.5,0-17.2-7.7-17.2-17.2s7.7-17.2,17.2-17.2c9.5,0,17.2,7.7,17.2,17.2S46.4,59.2,36.9,59.2z M36.9,28.5
					c-7.4,0-13.4,6-13.4,13.4s6,13.4,13.4,13.4s13.4-6,13.4-13.4S44.2,28.5,36.9,28.5z"/>
				<path d="M36.9,25.2c9.2,0,16.7,7.5,16.7,16.8s-7.5,16.7-16.7,16.7c-9.2,0-16.8-7.5-16.8-16.7S27.6,25.2,36.9,25.2 M36.9,55.8
					c7.7,0,13.9-6.2,13.9-13.9c0-7.7-6.2-13.9-13.9-13.9s-13.9,6.2-13.9,13.9C22.9,49.6,29.2,55.8,36.9,55.8 M36.9,24.2
					c-9.8,0-17.7,8-17.7,17.7c0,9.8,8,17.7,17.7,17.7c9.8,0,17.7-8,17.7-17.7C54.6,32.1,46.6,24.2,36.9,24.2L36.9,24.2z M36.9,54.8
					c-7.1,0-12.9-5.8-12.9-12.9c0-7.1,5.8-12.9,12.9-12.9c7.1,0,12.9,5.8,12.9,12.9C49.8,49,44,54.8,36.9,54.8L36.9,54.8z"/>
			</g>
		</g>
		<g>
			<g>
				<path d="M61.6,28c-1.3,0-2.3-1.1-2.3-2.3s1.1-2.3,2.3-2.3c1.3,0,2.3,1.1,2.3,2.3S62.9,28,61.6,28z"/>
				<path d="M61.6,23.8c1,0,1.8,0.8,1.8,1.8c0,1-0.8,1.8-1.8,1.8s-1.8-0.8-1.8-1.8C59.7,24.6,60.6,23.8,61.6,23.8 M61.6,22.8
					c-1.6,0-2.8,1.3-2.8,2.8s1.3,2.8,2.8,2.8s2.8-1.3,2.8-2.8S63.1,22.8,61.6,22.8L61.6,22.8z"/>
			</g>
		</g>
	</g>
</g>
</svg>
