<?xml version="1.0" encoding="utf-8"?>
<!-- Generator: Adobe Illustrator 26.2.1, SVG Export Plug-In . SVG Version: 6.00 Build 0)  -->
<svg version="1.1" xmlns="http://www.w3.org/2000/svg" xmlns:xlink="http://www.w3.org/1999/xlink" x="0px" y="0px"
	 viewBox="0 0 73.7 73.7" style="enable-background:new 0 0 73.7 73.7;" xml:space="preserve">
<style type="text/css">
	.st0{display:none;}
	.st1{display:inline;}
	.st2{fill:none;stroke:#0000FF;stroke-width:2.8346;stroke-miterlimit:10;}
	.st3{fill:#0000FF;}
	.st4{fill:none;stroke:#0000FF;stroke-width:2.8346;stroke-linecap:round;stroke-miterlimit:10;}
	.st5{display:inline;fill:none;stroke:#0000FF;stroke-width:2.8346;stroke-miterlimit:10;}
</style>
<g id="Layer_1" class="st0">
	
		<image style="overflow:visible;" width="1055" height="309" xlink:href="../../../../../../../../../Users/SzaboGabor/Desktop/Screen Shot 2022-04-17 at 22.26.34.png"  transform="matrix(1.8233 0 0 1.8233 -1502.5219 -235.9099)">
	</image>
	
		<image style="overflow:visible;" width="1055" height="309" xlink:href="../../../../../../../../../Users/SzaboGabor/Desktop/Screen Shot 2022-04-17 at 22.26.34.png"  transform="matrix(1.2893 -1.2893 1.2893 1.2893 -1227.4015 937.9995)">
	</image>
	<g class="st1">
		<circle class="st2" cx="52.1" cy="18.9" r="16.5"/>
		<polyline class="st2" points="35.9,22.3 6.6,55.8 15.2,64.4 48.7,35.1 		"/>
		<path class="st3" d="M31.6,39.4L31.6,39.4c-0.5-0.5-0.5-1.4,0-1.9l2.6-2.6c0.5-0.5,1.4-0.5,1.9,0v0c0.5,0.5,0.5,1.4,0,1.9
			l-2.6,2.6C33,40,32.1,40,31.6,39.4z"/>
		<line class="st2" x1="10.9" y1="60.1" x2="4.8" y2="66.2"/>
		<line class="st2" x1="40.5" y1="7.4" x2="63.7" y2="30.6"/>
		<line class="st2" x1="12.1" y1="49.6" x2="21.4" y2="58.9"/>
	</g>
	<rect x="4.8" y="-0.7" class="st5" width="67" height="67"/>
</g>
<g id="Layer_2">
	<g>
		<g>
			<g>
				<path d="M52.1,40c-4.9,0-9.5-1.9-13-5.4c-3.5-3.5-5.4-8.1-5.4-13c0-4.9,1.9-9.5,5.4-13c3.5-3.5,8.1-5.4,13-5.4
					c4.9,0,9.5,1.9,13,5.4c7.2,7.2,7.2,18.8,0,26C61.6,38.1,57,40,52.1,40z M52.1,7.1c-3.9,0-7.5,1.5-10.3,4.3
					c-2.7,2.7-4.3,6.4-4.3,10.3c0,3.9,1.5,7.5,4.3,10.3c2.7,2.7,6.4,4.3,10.3,4.3s7.5-1.5,10.3-4.3c2.7-2.7,4.3-6.4,4.3-10.3
					c0-3.9-1.5-7.5-4.3-10.3C59.6,8.6,56,7.1,52.1,7.1z"/>
				<path d="M52.1,3.8c4.8,0,9.3,1.9,12.6,5.2c7,7,7,18.3,0,25.3c0,0,0,0,0,0c-3.4,3.4-7.9,5.2-12.6,5.2s-9.3-1.9-12.6-5.2
					c-7-7-7-18.3,0-25.3C42.8,5.6,47.3,3.8,52.1,3.8 M52.1,36.7c4,0,7.8-1.6,10.6-4.4v0c5.9-5.9,5.9-15.4,0-21.3
					c-2.8-2.8-6.6-4.4-10.6-4.4S44.3,8.2,41.4,11c-5.9,5.9-5.9,15.4,0,21.3C44.3,35.1,48.1,36.7,52.1,36.7 M52.1,2.8
					c-5,0-9.8,2-13.3,5.5c-3.6,3.6-5.5,8.3-5.5,13.3c0,5,2,9.8,5.5,13.3c3.6,3.6,8.3,5.5,13.3,5.5c5,0,9.8-2,13.3-5.5
					c7.4-7.4,7.4-19.3,0-26.7C61.8,4.7,57.1,2.8,52.1,2.8L52.1,2.8z M52.1,35.7c-3.8,0-7.3-1.5-9.9-4.1c-2.6-2.6-4.1-6.2-4.1-9.9
					c0-3.8,1.5-7.3,4.1-9.9c2.7-2.7,6.2-4.1,9.9-4.1c3.8,0,7.3,1.5,9.9,4.1c2.6,2.6,4.1,6.2,4.1,9.9c0,3.8-1.5,7.3-4.1,9.9
					C59.4,34.2,55.8,35.7,52.1,35.7L52.1,35.7z"/>
			</g>
		</g>
		<g>
			<g>
				<polygon points="4,58.6 34.8,23.3 37.7,25.8 9.2,58.4 15.3,64.5 47.9,36 50.4,38.9 15.1,69.7 				"/>
				<path d="M34.8,24l2.1,1.9L8.6,58.4l6.7,6.7l32.5-28.4l1.9,2.1L15.1,69L4.7,58.6L34.8,24 M34.7,22.6l-0.7,0.7L3.9,57.9l-0.6,0.7
					L4,59.3l10.5,10.5l0.7,0.7l0.7-0.6l34.5-30.2l0.7-0.7l-0.7-0.7l-1.9-2.1l-0.7-0.7L47.2,36L15.3,63.8l-5.4-5.4l27.8-31.8l0.7-0.7
					l-0.7-0.7l-2.1-1.9L34.7,22.6L34.7,22.6z"/>
			</g>
		</g>
		<g>
			<g>
				<path d="M32.5,43c-0.5,0-1-0.2-1.3-0.5c-0.7-0.7-0.7-1.9,0-2.6l2.6-2.6c0.3-0.4,0.8-0.5,1.3-0.5c0.5,0,1,0.2,1.3,0.5
					c0.7,0.7,0.7,1.9,0,2.6l-2.6,2.6C33.5,42.8,33,43,32.5,43z"/>
				<path d="M35.1,37.2c0.3,0,0.7,0.1,1,0.4c0.5,0.5,0.5,1.4,0,1.9l-2.6,2.6c-0.3,0.3-0.6,0.4-1,0.4s-0.7-0.1-1-0.4
					c-0.5-0.5-0.5-1.4,0-1.9l2.6-2.6C34.4,37.3,34.8,37.2,35.1,37.2 M35.1,36.2c-0.6,0-1.2,0.2-1.7,0.7l-2.6,2.6
					c-0.4,0.4-0.7,1-0.7,1.7s0.2,1.2,0.7,1.7c0.4,0.4,1,0.7,1.7,0.7c0.6,0,1.2-0.2,1.7-0.7l2.6-2.6c0.9-0.9,0.9-2.4,0-3.3
					C36.4,36.5,35.8,36.2,35.1,36.2L35.1,36.2z"/>
			</g>
		</g>
		<g>
			<g>
				<rect x="3" y="64" transform="matrix(0.7071 -0.7071 0.7071 0.7071 -44.2758 24.8356)" width="9.7" height="3.8"/>
				<path d="M9.9,61.8l2,2l-6.1,6.1l-2-2L9.9,61.8 M9.9,60.4l-0.7,0.7l-6.1,6.1l-0.7,0.7l0.7,0.7l2,2l0.7,0.7l0.7-0.7l6.1-6.1
					l0.7-0.7l-0.7-0.7l-2-2L9.9,60.4L9.9,60.4z"/>
			</g>
		</g>
		<g>
			<g>
				<rect x="50.2" y="4.8" transform="matrix(0.7069 -0.7073 0.7073 0.7069 -5.730240e-02 43.214)" width="3.8" height="33.8"/>
				<path d="M41.5,9.1l23.2,23.2l-2,2L39.5,11.1L41.5,9.1 M41.5,7.7l-0.7,0.7l-2,2l-0.7,0.7l0.7,0.7L62,35l0.7,0.7l0.7-0.7l2-2
					l0.7-0.7l-0.7-0.7L42.2,8.4L41.5,7.7L41.5,7.7z"/>
			</g>
		</g>
		<g>
			<g>
				<rect x="14.9" y="49.8" transform="matrix(0.7071 -0.7071 0.7071 0.7071 -35.3506 28.5371)" width="3.8" height="14.2"/>
				<path d="M13.1,51.3l9.3,9.3l-2,2l-9.3-9.3L13.1,51.3 M13.1,49.9l-0.7,0.7l-2,2l-0.7,0.7l0.7,0.7l9.3,9.3l0.7,0.7l0.7-0.7l2-2
					l0.7-0.7l-0.7-0.7l-9.3-9.3L13.1,49.9L13.1,49.9z"/>
			</g>
		</g>
	</g>
</g>
</svg>
