<?xml version="1.0" encoding="utf-8"?>
<!-- Generator: Adobe Illustrator 26.2.1, SVG Export Plug-In . SVG Version: 6.00 Build 0)  -->
<svg version="1.1" id="Layer_1" xmlns="http://www.w3.org/2000/svg" xmlns:xlink="http://www.w3.org/1999/xlink" x="0px" y="0px"
	 viewBox="0 0 819.6 512" style="enable-background:new 0 0 819.6 512;" xml:space="preserve">
<style type="text/css">
	.st0{fill:#FFFFFF;}
</style>
<path class="st0" d="M777.1,85H105.3c-23.5,0-42.5-19-42.5-42.5v0C62.8,19,81.8,0,105.3,0l671.8,0c23.5,0,42.5,19,42.5,42.5v0
	C819.6,66,800.6,85,777.1,85z"/>
<path class="st0" d="M777.1,298.5H195.3c-23.5,0-42.5-19-42.5-42.5v0c0-23.5,19-42.5,42.5-42.5h581.8c23.5,0,42.5,19,42.5,42.5v0
	C819.6,279.5,800.6,298.5,777.1,298.5z"/>
<path class="st0" d="M777.1,512H42.5C19,512,0,493,0,469.5v0C0,446,19,427,42.5,427h734.6c23.5,0,42.5,19,42.5,42.5v0
	C819.6,493,800.6,512,777.1,512z"/>
</svg>
