<?xml version="1.0" encoding="utf-8"?>
<!-- Generator: Adobe Illustrator 26.2.1, SVG Export Plug-In . SVG Version: 6.00 Build 0)  -->
<svg version="1.1" id="Layer_1" xmlns="http://www.w3.org/2000/svg" xmlns:xlink="http://www.w3.org/1999/xlink" x="0px" y="0px"
	 viewBox="0 0 576 576.1" style="enable-background:new 0 0 576 576.1;" xml:space="preserve">
<style type="text/css">
	.st0{fill:#FFFFFF;}
</style>
<path class="st0" d="M232,269.3c31.8-15.2,48.4-38.2,48.4-74c0-70.6-52.6-87.8-113.3-87.8H0v354.4h171.8
	c64.4,0,124.9-30.9,124.9-102.9C296.7,314.5,275.6,281.6,232,269.3L232,269.3z M77.9,168H151c28.1,0,53.4,7.9,53.4,40.5
	c0,30.1-19.7,42.2-47.5,42.2h-79C77.9,250.7,77.9,168,77.9,168z M161.2,401.7H77.9v-97.6h84.9c34.3,0,56,14.3,56,50.6
	C218.8,390.5,192.9,401.7,161.2,401.7L161.2,401.7z M519.7,161H376v-34.9h143.7V161L519.7,161z M576,337.3
	c0-75.9-44.4-139.2-124.9-139.2c-78.2,0-131.3,58.8-131.3,135.8c0,79.9,50.3,134.7,131.3,134.7c61.3,0,101-27.6,120.1-86.3H509
	c-6.7,21.9-34.3,33.5-55.7,33.5c-41.3,0-63-24.2-63-65.3h185.1C575.7,346.3,576,341.8,576,337.3z M390.4,306.1
	c2.3-33.7,24.7-54.8,58.5-54.8c35.4,0,53.2,20.8,56.2,54.8H390.4z"/>
</svg>
