<?xml version="1.0" encoding="utf-8"?>
<!-- Generator: Adobe Illustrator 26.2.1, SVG Export Plug-In . SVG Version: 6.00 Build 0)  -->
<svg version="1.1" xmlns="http://www.w3.org/2000/svg" xmlns:xlink="http://www.w3.org/1999/xlink" x="0px" y="0px"
	 viewBox="0 0 73.7 73.7" style="enable-background:new 0 0 73.7 73.7;" xml:space="preserve">
<style type="text/css">
	.st0{display:none;}
	.st1{display:inline;}
	.st2{fill:none;stroke:#0000FF;stroke-width:2.8346;stroke-miterlimit:10;}
	.st3{fill:#0000FF;}
	.st4{fill:none;stroke:#0000FF;stroke-width:2.8346;stroke-linecap:round;stroke-miterlimit:10;}
	.st5{display:inline;fill:none;stroke:#0000FF;stroke-width:2.8346;stroke-miterlimit:10;}
</style>
<g id="Layer_1" class="st0">
	
		<image style="overflow:visible;" width="1055" height="309" xlink:href="../../../../../../../../../Users/SzaboGabor/Desktop/Screen Shot 2022-04-17 at 22.26.34.png"  transform="matrix(1.8233 0 0 1.8233 -724.1553 -235.9099)">
	</image>
	
		<image style="overflow:visible;" width="1055" height="309" xlink:href="../../../../../../../../../Users/SzaboGabor/Desktop/Screen Shot 2022-04-17 at 22.26.34.png"  transform="matrix(1.2893 -1.2893 1.2893 1.2893 -449.035 937.9995)">
	</image>
	<g class="st1">
		<rect x="9.2" y="31.2" class="st2" width="41.2" height="34"/>
		<polygon class="st2" points="50.3,54.1 64.5,65.2 64.5,31.2 50.3,42.2 		"/>
		<g>
			<path class="st4" d="M28.6,25.3c1.6-3,4.7-5,8.3-5c3.6,0,6.7,2,8.3,5"/>
			<path class="st4" d="M55.4,19.9C51.9,13.3,44.9,8.7,36.9,8.7c-8,0-15,4.5-18.5,11.2"/>
		</g>
	</g>
</g>
<g id="Layer_2">
	<g>
		<g>
			<g>
				<path d="M7.3,68.7V30.8h45v37.9H7.3z M48.4,64.9V34.7H11.1v30.2H48.4z"/>
				<path d="M51.7,31.3v36.9h-44V31.3H51.7 M10.6,65.4h38.3V34.2H10.6V65.4 M52.7,30.3h-1h-44h-1v1v36.9v1h1h44h1v-1V31.3V30.3
					L52.7,30.3z M11.6,35.2h36.3v29.2H11.6V35.2L11.6,35.2z"/>
			</g>
		</g>
		<g>
			<g>
				<path d="M48.4,56.7V42.9l18-14.1v41.9L48.4,56.7z M62.6,62.9V36.7l-10.4,8.1v10L62.6,62.9z"/>
				<path d="M66,29.9v39.8l-17-13.3V43.1L66,29.9 M63.1,63.9V35.7l-11.4,8.9V55L63.1,63.9 M66.9,27.8l-1.6,1.2l-17,13.3l-0.4,0.3
					v0.5v13.3v0.5l0.4,0.3l17,13.3l1.6,1.2v-2V29.9V27.8L66.9,27.8z M52.7,45l9.4-7.3v24.2l-9.4-7.3V45L52.7,45z"/>
			</g>
		</g>
		<g>
			<g>
				<g>
					<path d="M28.6,25.9c-0.3,0-0.6-0.1-0.9-0.2c-0.5-0.2-0.8-0.6-0.9-1.1s-0.1-1,0.1-1.5c2-3.7,5.8-6,10-6c4.2,0,8,2.3,10,6
						c0.2,0.5,0.3,1,0.1,1.5c-0.2,0.5-0.5,0.9-0.9,1.1c-0.3,0.1-0.6,0.2-0.9,0.2c-0.7,0-1.4-0.4-1.7-1c-1.3-2.4-3.8-4-6.6-4
						c-2.8,0-5.3,1.5-6.6,4C30,25.5,29.3,25.9,28.6,25.9z"/>
					<path d="M36.9,17.5c4,0,7.6,2.2,9.5,5.7c0.4,0.7,0.1,1.5-0.6,1.9c-0.2,0.1-0.4,0.2-0.7,0.2c-0.5,0-1-0.3-1.3-0.8
						c-1.4-2.6-4.1-4.2-7-4.2s-5.6,1.6-7,4.2c-0.3,0.5-0.7,0.8-1.3,0.8c-0.2,0-0.4-0.1-0.7-0.2c-0.7-0.4-1-1.2-0.6-1.9
						C29.2,19.7,32.9,17.5,36.9,17.5 M36.9,16.5c-4.4,0-8.3,2.4-10.4,6.3c-0.3,0.6-0.4,1.2-0.2,1.8c0.2,0.6,0.6,1.1,1.2,1.4
						c0.3,0.2,0.7,0.3,1.1,0.3c0.9,0,1.7-0.5,2.1-1.3c1.2-2.3,3.6-3.7,6.1-3.7c2.6,0,4.9,1.4,6.1,3.7c0.4,0.8,1.2,1.3,2.1,1.3
						c0.4,0,0.8-0.1,1.1-0.3c0.6-0.3,1-0.8,1.2-1.4c0.2-0.6,0.1-1.3-0.2-1.8C45.2,18.9,41.2,16.5,36.9,16.5L36.9,16.5z"/>
				</g>
			</g>
			<g>
				<g>
					<path d="M55.4,20.4c-0.7,0-1.4-0.4-1.7-1c-3.3-6.3-9.8-10.2-16.8-10.2S23.3,13.2,20,19.4c-0.3,0.6-1,1-1.7,1
						c-0.3,0-0.6-0.1-0.9-0.2c-0.5-0.2-0.8-0.6-0.9-1.1s-0.1-1,0.1-1.5c4-7.5,11.7-12.2,20.2-12.2s16.2,4.7,20.2,12.2
						c0.2,0.5,0.3,1,0.1,1.5s-0.5,0.9-0.9,1.1C56,20.4,55.7,20.4,55.4,20.4z"/>
					<path d="M36.9,5.9c8.3,0,15.9,4.6,19.8,11.9c0.4,0.7,0.1,1.5-0.6,1.9c-0.2,0.1-0.4,0.2-0.7,0.2c-0.5,0-1-0.3-1.3-0.8
						c-3.4-6.4-10-10.4-17.3-10.4s-13.9,4-17.3,10.4c-0.3,0.5-0.7,0.8-1.3,0.8c-0.2,0-0.4-0.1-0.7-0.2c-0.7-0.4-1-1.2-0.6-1.9
						C21,10.5,28.6,5.9,36.9,5.9 M36.9,4.9c-8.7,0-16.6,4.8-20.7,12.5c-0.3,0.6-0.4,1.2-0.2,1.8c0.2,0.6,0.6,1.1,1.2,1.4
						c0.3,0.2,0.7,0.3,1.1,0.3c0.9,0,1.7-0.5,2.1-1.3c3.2-6.1,9.5-9.9,16.4-9.9s13.2,3.8,16.4,9.9c0.4,0.8,1.2,1.3,2.1,1.3
						c0.4,0,0.8-0.1,1.1-0.3c0.6-0.3,1-0.8,1.2-1.4c0.2-0.6,0.1-1.3-0.2-1.8C53.5,9.7,45.5,4.9,36.9,4.9L36.9,4.9z"/>
				</g>
			</g>
		</g>
	</g>
</g>
</svg>
