<?xml version="1.0" encoding="utf-8"?>
<!-- Generator: Adobe Illustrator 27.0.1, SVG Export Plug-In . SVG Version: 6.00 Build 0)  -->
<svg version="1.1" id="Layer_1" xmlns="http://www.w3.org/2000/svg" xmlns:xlink="http://www.w3.org/1999/xlink" x="0px" y="0px"
	 viewBox="0 0 73.7 73.7" style="enable-background:new 0 0 73.7 73.7;" xml:space="preserve">
<style type="text/css">
	.st0{display:none;}
	.st1{display:inline;}
	.st2{fill:none;stroke:#0000FF;stroke-width:2.8346;stroke-miterlimit:10;}
	.st3{fill:#0000FF;}
</style>
<g id="Layer_1_00000040557206940964133840000016200870298526032820_" class="st0">
	<g class="st1">
		<polygon class="st2" points="45.5,9.8 50.5,18.9 70.3,18.9 70.3,65.9 3.4,65.9 3.4,18.9 23.6,18.9 28.5,9.8 		"/>
		<circle class="st2" cx="36.9" cy="42.9" r="7.6"/>
		<circle class="st2" cx="36.9" cy="42.9" r="15.3"/>
		<circle class="st3" cx="61.6" cy="26.7" r="1.8"/>
	</g>
</g>
<g id="Layer_2_00000056386734391452373680000002886364107956066958_">
	<g>
		<g>
			<g>
				<path d="M1.5,70.2V19.5h21l5-9.1h19.2l5,9.1h20.6v50.7H1.5z M68.4,66.4V23.3H49.3l-5-9.1H29.7l-5,9.1H5.3v43.1
					C5.3,66.4,68.4,66.4,68.4,66.4z"/>
				<path d="M46.3,10.8l5,9.1h20.4v49.7H2V20h20.8l5-9.1L46.3,10.8 M4.8,66.9h64.1V22.8H49.6l-5-9.1H29.4l-5,9.1H4.8V66.9 M46.9,9.8
					h-0.6H27.7h-0.6l-0.3,0.5L22.1,19H2H1v1v49.7v1h1h69.8h1v-1V20v-1h-1H51.9l-4.7-8.6L46.9,9.8L46.9,9.8z M30,14.7h14.1l4.7,8.6
					l0.3,0.5h0.6H68v42.1H5.8V23.8h18.6H25l0.3-0.5L30,14.7L30,14.7z"/>
			</g>
		</g>
		<g>
			<g>
				<path d="M36.9,54.9c-5.3,0-9.5-4.3-9.5-9.5c0-5.3,4.3-9.5,9.5-9.5s9.5,4.3,9.5,9.5S42.1,54.9,36.9,54.9z M36.9,39.6
					c-3.2,0-5.7,2.6-5.7,5.7s2.6,5.7,5.7,5.7s5.7-2.6,5.7-5.7S40,39.6,36.9,39.6z"/>
				<path d="M36.9,36.3c5,0,9,4.1,9,9s-4.1,9-9,9s-9-4.1-9-9S31.9,36.3,36.9,36.3 M36.9,51.5c3.4,0,6.2-2.8,6.2-6.2
					s-2.8-6.2-6.2-6.2s-6.2,2.8-6.2,6.2S33.4,51.5,36.9,51.5 M36.9,35.3c-5.5,0-10,4.5-10,10s4.5,10,10,10s10-4.5,10-10
					S42.4,35.3,36.9,35.3L36.9,35.3z M36.9,50.6c-2.9,0-5.2-2.3-5.2-5.2s2.3-5.2,5.2-5.2s5.2,2.3,5.2,5.2
					C42.1,48.2,39.7,50.6,36.9,50.6L36.9,50.6z"/>
			</g>
		</g>
		<g>
			<g>
				<path d="M36.9,62.6c-9.5,0-17.2-7.7-17.2-17.2s7.7-17.2,17.2-17.2s17.2,7.7,17.2,17.2S46.4,62.6,36.9,62.6z M36.9,31.9
					c-7.4,0-13.4,6-13.4,13.4s6,13.4,13.4,13.4s13.4-6,13.4-13.4C50.3,37.9,44.2,31.9,36.9,31.9z"/>
				<path d="M36.9,28.6c9.2,0,16.7,7.5,16.7,16.8s-7.5,16.7-16.7,16.7s-16.8-7.5-16.8-16.7S27.6,28.6,36.9,28.6 M36.9,59.3
					c7.7,0,13.9-6.2,13.9-13.9s-6.2-13.9-13.9-13.9S23,37.7,23,45.4C22.9,53,29.2,59.3,36.9,59.3 M36.9,27.6
					c-9.8,0-17.7,8-17.7,17.7c0,9.8,8,17.7,17.7,17.7c9.8,0,17.7-8,17.7-17.7C54.6,35.6,46.6,27.6,36.9,27.6L36.9,27.6z M36.9,58.3
					c-7.1,0-12.9-5.8-12.9-12.9s5.8-12.9,12.9-12.9s12.9,5.8,12.9,12.9C49.8,52.5,44,58.3,36.9,58.3L36.9,58.3z"/>
			</g>
		</g>
		<g>
			<g>
				<path d="M61.6,31.4c-1.3,0-2.3-1.1-2.3-2.3s1.1-2.3,2.3-2.3c1.3,0,2.3,1.1,2.3,2.3S62.9,31.4,61.6,31.4z"/>
				<path d="M61.6,27.2c1,0,1.8,0.8,1.8,1.8s-0.8,1.8-1.8,1.8S59.8,30,59.8,29S60.6,27.2,61.6,27.2 M61.6,26.2
					c-1.6,0-2.8,1.3-2.8,2.8s1.3,2.8,2.8,2.8s2.8-1.3,2.8-2.8S63.1,26.2,61.6,26.2L61.6,26.2z"/>
			</g>
		</g>
	</g>
</g>
</svg>
